<mxfile host="app.diagrams.net" modified="2023-10-27T09:17:31.400Z" agent="Mozilla/5.0 (Macintosh; Intel Mac OS X 10_15_7) AppleWebKit/605.1.15 (KHTML, like Gecko) Version/17.0 Safari/605.1.15" etag="BZnx1pUW50quM4eRah8q" version="22.0.8" type="device">
  <diagram name="Seite-1" id="cGKrR-vWukFo99Fw4twn">
    <mxGraphModel dx="909" dy="516" grid="1" gridSize="10" guides="1" tooltips="1" connect="1" arrows="1" fold="1" page="1" pageScale="1" pageWidth="827" pageHeight="1169" math="0" shadow="0">
      <root>
        <mxCell id="0" />
        <mxCell id="1" parent="0" />
        <mxCell id="p6f1N9v3K54FHf5Asp3c-1" value="happy" style="swimlane;fontStyle=0;childLayout=stackLayout;horizontal=1;startSize=30;horizontalStack=0;resizeParent=1;resizeParentMax=0;resizeLast=0;collapsible=1;marginBottom=0;whiteSpace=wrap;html=1;" vertex="1" parent="1">
          <mxGeometry x="240" y="200" width="140" height="120" as="geometry" />
        </mxCell>
        <mxCell id="p6f1N9v3K54FHf5Asp3c-2" value="IMG_1.jpg" style="text;strokeColor=none;fillColor=none;align=left;verticalAlign=middle;spacingLeft=4;spacingRight=4;overflow=hidden;points=[[0,0.5],[1,0.5]];portConstraint=eastwest;rotatable=0;whiteSpace=wrap;html=1;" vertex="1" parent="p6f1N9v3K54FHf5Asp3c-1">
          <mxGeometry y="30" width="140" height="30" as="geometry" />
        </mxCell>
        <mxCell id="p6f1N9v3K54FHf5Asp3c-3" value="IMG_2.jpg" style="text;strokeColor=none;fillColor=none;align=left;verticalAlign=middle;spacingLeft=4;spacingRight=4;overflow=hidden;points=[[0,0.5],[1,0.5]];portConstraint=eastwest;rotatable=0;whiteSpace=wrap;html=1;" vertex="1" parent="p6f1N9v3K54FHf5Asp3c-1">
          <mxGeometry y="60" width="140" height="30" as="geometry" />
        </mxCell>
        <mxCell id="p6f1N9v3K54FHf5Asp3c-4" value="IMG_3.jpg" style="text;strokeColor=none;fillColor=none;align=left;verticalAlign=middle;spacingLeft=4;spacingRight=4;overflow=hidden;points=[[0,0.5],[1,0.5]];portConstraint=eastwest;rotatable=0;whiteSpace=wrap;html=1;" vertex="1" parent="p6f1N9v3K54FHf5Asp3c-1">
          <mxGeometry y="90" width="140" height="30" as="geometry" />
        </mxCell>
        <mxCell id="p6f1N9v3K54FHf5Asp3c-5" value="neutral" style="swimlane;fontStyle=0;childLayout=stackLayout;horizontal=1;startSize=30;horizontalStack=0;resizeParent=1;resizeParentMax=0;resizeLast=0;collapsible=1;marginBottom=0;whiteSpace=wrap;html=1;" vertex="1" parent="1">
          <mxGeometry x="240" y="360" width="140" height="60" as="geometry" />
        </mxCell>
        <mxCell id="p6f1N9v3K54FHf5Asp3c-9" value="happy" style="swimlane;fontStyle=0;childLayout=stackLayout;horizontal=1;startSize=30;horizontalStack=0;resizeParent=1;resizeParentMax=0;resizeLast=0;collapsible=1;marginBottom=0;whiteSpace=wrap;html=1;" vertex="1" parent="1">
          <mxGeometry x="240" y="520" width="140" height="60" as="geometry" />
        </mxCell>
        <mxCell id="p6f1N9v3K54FHf5Asp3c-13" value="neutral" style="swimlane;fontStyle=0;childLayout=stackLayout;horizontal=1;startSize=30;horizontalStack=0;resizeParent=1;resizeParentMax=0;resizeLast=0;collapsible=1;marginBottom=0;whiteSpace=wrap;html=1;" vertex="1" parent="1">
          <mxGeometry x="240" y="600" width="140" height="120" as="geometry" />
        </mxCell>
        <mxCell id="p6f1N9v3K54FHf5Asp3c-14" value="IMG_1.jpg" style="text;strokeColor=none;fillColor=none;align=left;verticalAlign=middle;spacingLeft=4;spacingRight=4;overflow=hidden;points=[[0,0.5],[1,0.5]];portConstraint=eastwest;rotatable=0;whiteSpace=wrap;html=1;" vertex="1" parent="p6f1N9v3K54FHf5Asp3c-13">
          <mxGeometry y="30" width="140" height="30" as="geometry" />
        </mxCell>
        <mxCell id="p6f1N9v3K54FHf5Asp3c-15" value="IMG_2.jpg" style="text;strokeColor=none;fillColor=none;align=left;verticalAlign=middle;spacingLeft=4;spacingRight=4;overflow=hidden;points=[[0,0.5],[1,0.5]];portConstraint=eastwest;rotatable=0;whiteSpace=wrap;html=1;" vertex="1" parent="p6f1N9v3K54FHf5Asp3c-13">
          <mxGeometry y="60" width="140" height="30" as="geometry" />
        </mxCell>
        <mxCell id="p6f1N9v3K54FHf5Asp3c-16" value="IMG_3.jpg" style="text;strokeColor=none;fillColor=none;align=left;verticalAlign=middle;spacingLeft=4;spacingRight=4;overflow=hidden;points=[[0,0.5],[1,0.5]];portConstraint=eastwest;rotatable=0;whiteSpace=wrap;html=1;" vertex="1" parent="p6f1N9v3K54FHf5Asp3c-13">
          <mxGeometry y="90" width="140" height="30" as="geometry" />
        </mxCell>
        <mxCell id="p6f1N9v3K54FHf5Asp3c-21" style="edgeStyle=orthogonalEdgeStyle;rounded=0;orthogonalLoop=1;jettySize=auto;html=1;exitX=0.5;exitY=1;exitDx=0;exitDy=0;entryX=0;entryY=0.5;entryDx=0;entryDy=0;" edge="1" parent="1" source="p6f1N9v3K54FHf5Asp3c-17" target="p6f1N9v3K54FHf5Asp3c-19">
          <mxGeometry relative="1" as="geometry" />
        </mxCell>
        <mxCell id="p6f1N9v3K54FHf5Asp3c-17" value="&lt;font style=&quot;font-size: 18px;&quot;&gt;Dataset&lt;/font&gt;" style="text;html=1;strokeColor=none;fillColor=none;align=center;verticalAlign=middle;whiteSpace=wrap;rounded=0;" vertex="1" parent="1">
          <mxGeometry x="80" y="120" width="60" height="30" as="geometry" />
        </mxCell>
        <mxCell id="p6f1N9v3K54FHf5Asp3c-24" style="edgeStyle=orthogonalEdgeStyle;rounded=0;orthogonalLoop=1;jettySize=auto;html=1;exitX=0;exitY=0.5;exitDx=0;exitDy=0;entryX=0;entryY=0.5;entryDx=0;entryDy=0;" edge="1" parent="1" target="p6f1N9v3K54FHf5Asp3c-18">
          <mxGeometry relative="1" as="geometry">
            <mxPoint x="110" y="175" as="sourcePoint" />
            <Array as="points">
              <mxPoint x="120" y="175" />
              <mxPoint x="120" y="175" />
            </Array>
          </mxGeometry>
        </mxCell>
        <mxCell id="p6f1N9v3K54FHf5Asp3c-18" value="&lt;font style=&quot;font-size: 16px;&quot;&gt;men&lt;/font&gt;" style="text;html=1;strokeColor=none;fillColor=none;align=left;verticalAlign=middle;whiteSpace=wrap;rounded=0;" vertex="1" parent="1">
          <mxGeometry x="160" y="160" width="40" height="30" as="geometry" />
        </mxCell>
        <mxCell id="p6f1N9v3K54FHf5Asp3c-19" value="&lt;font style=&quot;font-size: 16px;&quot;&gt;women&lt;/font&gt;" style="text;html=1;strokeColor=none;fillColor=none;align=left;verticalAlign=middle;whiteSpace=wrap;rounded=0;" vertex="1" parent="1">
          <mxGeometry x="160" y="480" width="40" height="30" as="geometry" />
        </mxCell>
        <mxCell id="p6f1N9v3K54FHf5Asp3c-25" value="" style="endArrow=classic;html=1;rounded=0;entryX=0;entryY=0.125;entryDx=0;entryDy=0;entryPerimeter=0;" edge="1" parent="1" target="p6f1N9v3K54FHf5Asp3c-1">
          <mxGeometry width="50" height="50" relative="1" as="geometry">
            <mxPoint x="180" y="190" as="sourcePoint" />
            <mxPoint x="210" y="260" as="targetPoint" />
            <Array as="points">
              <mxPoint x="180" y="215" />
            </Array>
          </mxGeometry>
        </mxCell>
        <mxCell id="p6f1N9v3K54FHf5Asp3c-28" value="" style="endArrow=classic;html=1;rounded=0;entryX=0;entryY=0.25;entryDx=0;entryDy=0;" edge="1" parent="1" target="p6f1N9v3K54FHf5Asp3c-5">
          <mxGeometry width="50" height="50" relative="1" as="geometry">
            <mxPoint x="180" y="190" as="sourcePoint" />
            <mxPoint x="200" y="360" as="targetPoint" />
            <Array as="points">
              <mxPoint x="180" y="375" />
            </Array>
          </mxGeometry>
        </mxCell>
        <mxCell id="p6f1N9v3K54FHf5Asp3c-29" value="" style="endArrow=classic;html=1;rounded=0;entryX=0;entryY=0.25;entryDx=0;entryDy=0;exitX=0.5;exitY=1;exitDx=0;exitDy=0;" edge="1" parent="1" source="p6f1N9v3K54FHf5Asp3c-19" target="p6f1N9v3K54FHf5Asp3c-9">
          <mxGeometry width="50" height="50" relative="1" as="geometry">
            <mxPoint x="150" y="510" as="sourcePoint" />
            <mxPoint x="150" y="550" as="targetPoint" />
            <Array as="points">
              <mxPoint x="180" y="535" />
            </Array>
          </mxGeometry>
        </mxCell>
        <mxCell id="p6f1N9v3K54FHf5Asp3c-30" value="" style="endArrow=classic;html=1;rounded=0;entryX=-0.01;entryY=0.123;entryDx=0;entryDy=0;entryPerimeter=0;exitX=0.5;exitY=1;exitDx=0;exitDy=0;" edge="1" parent="1" source="p6f1N9v3K54FHf5Asp3c-19" target="p6f1N9v3K54FHf5Asp3c-13">
          <mxGeometry width="50" height="50" relative="1" as="geometry">
            <mxPoint x="140" y="710" as="sourcePoint" />
            <mxPoint x="190" y="660" as="targetPoint" />
            <Array as="points">
              <mxPoint x="180" y="615" />
            </Array>
          </mxGeometry>
        </mxCell>
      </root>
    </mxGraphModel>
  </diagram>
</mxfile>
